<svg width="15" height="15" viewBox="0 0 15 15" fill="none" xmlns="http://www.w3.org/2000/svg">
<path d="M13.3333 2.5459C13.3334 2.22432 13.2057 1.9159 12.9783 1.68848C12.751 1.46104 12.4425 1.33305 12.1209 1.33301C11.8395 1.33297 11.5682 1.43107 11.3524 1.60791L11.2635 1.68799L2.36604 10.5874L2.36555 10.5884C2.28823 10.6655 2.23109 10.7603 2.19905 10.8647L1.49983 13.166L3.80452 12.4673C3.90873 12.4355 4.00372 12.3787 4.08089 12.3018L12.9779 3.40332L13.0584 3.31445C13.2353 3.09867 13.3333 2.82737 13.3333 2.5459ZM14.6668 2.5459C14.6667 3.179 14.4307 3.78789 14.0076 4.25488L13.9207 4.34619L5.02229 13.2461C4.7905 13.4772 4.50534 13.6479 4.19221 13.7432L1.28938 14.6235L1.28792 14.624C1.11507 14.676 0.931201 14.6802 0.756178 14.6362C0.581216 14.5922 0.421479 14.5015 0.293776 14.374C0.166026 14.2465 0.0748886 14.0866 0.0305922 13.9116C-0.0136975 13.7366 -0.00984841 13.5528 0.0418227 13.3799L0.0427993 13.377L0.923659 10.4756L0.924147 10.4741C1.02016 10.161 1.19135 9.8759 1.42317 9.64453L10.3206 0.745605C10.7981 0.268267 11.4458 -3.88134e-05 12.1209 4.21142e-09C12.7961 8.46927e-05 13.4438 0.268144 13.9212 0.745605C14.3986 1.22308 14.6669 1.87074 14.6668 2.5459Z" fill="#0A0A0A"/>
<path d="M8.86226 2.19556C9.12261 1.93521 9.54429 1.93521 9.80464 2.19556L12.4716 4.86206C12.7319 5.12242 12.732 5.54461 12.4716 5.80493C12.2113 6.06525 11.7891 6.0652 11.5288 5.80493L8.86226 3.13794C8.60191 2.87759 8.60191 2.45591 8.86226 2.19556Z" fill="#0A0A0A"/>
</svg>
