<svg width="19" height="18" viewBox="0 0 19 18" fill="none" xmlns="http://www.w3.org/2000/svg">
<path d="M9.25664 0.00305176C9.43367 0.0153886 9.60629 0.0642567 9.76323 0.147095L9.84074 0.19165L9.9146 0.241089C10.0585 0.344995 10.179 0.47791 10.2686 0.631104L10.3107 0.709229L10.3113 0.709839L12.2364 4.60938C12.3034 4.74488 12.4022 4.86224 12.5245 4.95117C12.6469 5.04021 12.7891 5.09823 12.9389 5.12024L17.2437 5.75012C17.4496 5.78006 17.644 5.85989 17.8113 5.98206L17.8809 6.03699L17.9474 6.09619C18.0963 6.24048 18.2077 6.41947 18.2721 6.61743C18.3457 6.84361 18.3547 7.08595 18.2978 7.31689C18.2408 7.54791 18.1202 7.7587 17.9499 7.9248L14.8359 10.957C14.7275 11.0628 14.6465 11.1933 14.5997 11.3373C14.5528 11.4814 14.5412 11.6347 14.5667 11.7841L15.3009 16.0632L15.3138 16.1517C15.3355 16.3588 15.306 16.5688 15.2277 16.7627C15.1382 16.9841 14.9882 17.1759 14.795 17.3163C14.6016 17.4567 14.3724 17.5402 14.134 17.5568C13.8956 17.5733 13.657 17.5226 13.4461 17.4103L9.6021 15.3888C9.4681 15.3185 9.31885 15.282 9.16753 15.282C9.01611 15.282 8.86701 15.319 8.73295 15.3894L8.73234 15.3888L4.88713 17.4109L4.88774 17.4115C4.67694 17.523 4.43899 17.573 4.20109 17.5562C3.96306 17.5392 3.73429 17.456 3.5413 17.3157C3.34832 17.1753 3.19861 16.9833 3.10918 16.7621C3.01979 16.5409 2.99409 16.2988 3.03532 16.0638L3.76897 11.7847L3.78178 11.6718C3.78724 11.5588 3.77177 11.4454 3.73662 11.3373C3.68971 11.1931 3.60841 11.0622 3.4998 10.9564L0.389449 7.92786C0.217715 7.76198 0.0957091 7.5516 0.0378868 7.31995C-0.0199232 7.08823 -0.0114129 6.84459 0.0623008 6.61743C0.136027 6.3904 0.271998 6.18871 0.454757 6.03516L0.524947 5.98022C0.669243 5.87527 0.833857 5.80145 1.00835 5.76416L1.09624 5.7489L5.39677 5.12024C5.54659 5.09842 5.6893 5.04013 5.81181 4.95117C5.93424 4.86225 6.03341 4.745 6.10051 4.60938L8.02495 0.709839L8.02556 0.709229C8.13098 0.496276 8.29365 0.316986 8.49553 0.19165L8.57243 0.147095C8.75554 0.0503868 8.96017 0 9.16814 0L9.25664 0.00305176ZM7.59526 5.34668C7.40854 5.7246 7.13249 6.05232 6.79143 6.30005C6.45045 6.54767 6.05426 6.7081 5.63725 6.7688L2.11674 7.28394L4.66252 9.76257C4.96487 10.057 5.19119 10.4208 5.3217 10.8221C5.45219 11.2235 5.48338 11.6507 5.41203 12.0667L4.81145 15.5676L7.95781 13.9136L8.10002 13.8446C8.43511 13.6938 8.79888 13.6151 9.16753 13.6151C9.53616 13.6151 9.89995 13.6938 10.235 13.8446L10.3772 13.9136L13.5248 15.5682L12.9242 12.0654C12.8533 11.6498 12.8841 11.2225 13.0146 10.8215C13.145 10.4206 13.3712 10.0575 13.6731 9.76318L16.2177 7.28394L12.6972 6.76941C12.2806 6.70825 11.8848 6.54651 11.5442 6.29883C11.2037 6.05116 10.9282 5.72478 10.7416 5.34729L9.16814 2.15942L7.59526 5.34668Z" fill="#D1D5DC"/>
</svg>
